# xmcd
# Track frame offsets:
# 150
# 18330
# 41600
#
# Disc length: 818 seconds
# Revision: 0
# Processed by: cddbd v1.4PL0 Copyright (c) Steve Scherf et al.
# Submitted via: VisiTrax 2.9.5.180 - For more info visit www.synapsa.com
#
DISCID=1a033003
DTITLE=Sanne - Haven't I been good to you? (single)
DYEAR=1994
DGENRE=Blues
TTITLE0=Haven't I been good to you?
TTITLE1=Walking that fine line
TTITLE2=Storm warning
EXTD=
EXTT0=
EXTT1=
EXTT2=
PLAYORDER=
